{
  "accessors": [
    {
      "bufferView": 2,
      "componentType": 5126,
      "count": 8925,
      "max": [
        0.44826745986938477,
        1.1451354026794434,
        0.23618538677692413
      ],
      "min": [
        -0.5047866702079773,
        0.0006790317129343748,
        -0.12279988080263138
      ],
      "type": "VEC3"
    },
    {
      "bufferView": 2,
      "byteOffset": 107100,
      "componentType": 5126,
      "count": 8925,
      "max": [
        0.9998947381973267,
        0.9998862147331238,
        1.0
      ],
      "min": [
        -0.9998862743377686,
        -0.9998862147331238,
        -1.0
      ],
      "type": "VEC3"
    },
    {
      "bufferView": 1,
      "componentType": 5126,
      "count": 8925,
      "max": [
        0.9963682293891907,
        0.9586922526359558
      ],
      "min": [
        0.0036317359190434217,
        0.003631711471825838
      ],
      "type": "VEC2"
    },
    {
      "bufferView": 0,
      "componentType": 5125,
      "count": 43728,
      "type": "SCALAR"
    }
  ],
  "asset": {
    "extras": {
      "author": "kuayarts (https://sketchfab.com/kuayarts)",
      "license": "CC-BY-4.0 (http://creativecommons.org/licenses/by/4.0/)",
      "source": "https://sketchfab.com/3d-models/pokemon-sudowoodo-tree-1f3779a3357340ff8267201572be8b58",
      "title": "Pokemon Sudowoodo - Tree"
    },
    "generator": "Sketchfab-12.56.0",
    "version": "2.0"
  },
  "bufferViews": [
    {
      "buffer": 0,
      "byteLength": 174912,
      "name": "floatBufferViews",
      "target": 34963
    },
    {
      "buffer": 0,
      "byteLength": 71400,
      "byteOffset": 174912,
      "byteStride": 8,
      "name": "floatBufferViews",
      "target": 34962
    },
    {
      "buffer": 0,
      "byteLength": 214200,
      "byteOffset": 246312,
      "byteStride": 12,
      "name": "floatBufferViews",
      "target": 34962
    }
  ],
  "buffers": [
    {
      "byteLength": 460512,
      "uri": "scene.bin"
    }
  ],
  "images": [
    {
      "uri": "textures/Cube_033_baseColor.png"
    }
  ],
  "materials": [
    {
      "name": "Cube_033",
      "pbrMetallicRoughness": {
        "baseColorTexture": {
          "index": 0
        },
        "metallicFactor": 0.0,
        "roughnessFactor": 0.6
      }
    }
  ],
  "meshes": [
    {
      "name": "Cube_033_2_0",
      "primitives": [
        {
          "attributes": {
            "NORMAL": 1,
            "POSITION": 0,
            "TEXCOORD_0": 2
          },
          "indices": 3,
          "material": 0,
          "mode": 4
        }
      ]
    }
  ],
  "nodes": [
    {
      "children": [
        1
      ],
      "matrix": [
        1.2696187496185303,
        0.0,
        0.0,
        0.0,
        0.0,
        2.819119936644588e-16,
        -1.2696187496185303,
        0.0,
        0.0,
        1.2696187496185303,
        2.819119936644588e-16,
        0.0,
        0.0,
        0.0,
        0.0,
        1.0
      ],
      "name": "Sketchfab_model"
    },
    {
      "children": [
        2
      ],
      "name": "d700cec0ae68428795988a915034ea00.abc.cleaner.materialmerger.gles"
    },
    {
      "children": [
        3
      ],
      "matrix": [
        1.0,
        0.0,
        0.0,
        0.0,
        0.0,
        2.220446049250313e-16,
        1.0,
        0.0,
        0.0,
        -1.0,
        2.220446049250313e-16,
        0.0,
        0.0,
        0.0,
        0.0,
        1.0
      ],
      "name": "Object_2"
    },
    {
      "children": [
        4
      ],
      "matrix": [
        1.0482423305511475,
        0.0,
        0.0,
        0.0,
        0.0,
        1.0482423305511475,
        0.0,
        0.0,
        0.0,
        0.0,
        1.0482423305511475,
        0.0,
        0.0,
        0.0,
        0.0,
        1.0
      ],
      "name": "Object_3"
    },
    {
      "children": [
        5
      ],
      "name": "TimeframeMainGroup"
    },
    {
      "children": [
        6
      ],
      "name": "Object_5"
    },
    {
      "mesh": 0,
      "name": "Cube_033_2_0"
    }
  ],
  "samplers": [
    {
      "magFilter": 9729,
      "minFilter": 9987,
      "wrapS": 10497,
      "wrapT": 10497
    }
  ],
  "scene": 0,
  "scenes": [
    {
      "name": "Sketchfab_Scene",
      "nodes": [
        0
      ]
    }
  ],
  "textures": [
    {
      "sampler": 0,
      "source": 0
    }
  ]
}
